<?xml version="1.0" encoding="UTF-8"?>
<svg id="Layer_2" data-name="Layer 2" xmlns="http://www.w3.org/2000/svg" xmlns:xlink="http://www.w3.org/1999/xlink" viewBox="0 0 229.29 204.79">
  <defs>
    <style>
      .cls-1 {
        clip-path: url(#clippath);
      }

      .cls-2 {
        clip-path: url(#clippath-1);
      }

      .cls-3 {
        fill: #f6dc90;
      }

      .cls-3, .cls-4, .cls-5, .cls-6, .cls-7 {
        stroke-width: 0px;
      }

      .cls-4, .cls-8 {
        fill: #facad0;
      }

      .cls-5 {
        fill: #f9be37;
      }

      .cls-6 {
        fill: #f58e8f;
      }

      .cls-7, .cls-9 {
        fill: #cb7949;
      }
    </style>
    <clipPath id="clippath">
      <path class="cls-4" d="M11.57,167c9.15,12.99,24.07,21.75,39.87,23.43-14.42,2.65-11.03,7.18-25.03,13.25,14.53.61,60.95,4.68,66.52-7.89.81-1.83,3.87,1,5.82,1.41,4.73,1,14.45,1.7,17.74-1.85,5.32,6.02,37.05-4.8,43.28-13,30.68,18.53,37.33,7.36,55.16-18.37-36.77,16.96-46.11,11.58-46.11,11.58,37.34.29,59.49-61.14,60.46-84.27l-16.83,14.09c10.96-18.64,13.77-41.89,7.55-62.6-7.36,10.26-17.19,18.74-28.43,24.52-1.06-14.17-4.95-28.13-11.38-40.81-6.24,9.47-11.12,19.84-14.44,30.69.8-8.99-.65-18.18-4.17-26.49-2.6,6.62-5.2,13.23-7.8,19.85,3.67-19.55-11.03-37.58-26.12-50.54-1.46,11.79-4.54,23.37-9.13,34.33-6.06-2.62-11.54-6.55-15.96-11.45,1.05,10.48,2.1,20.97,3.15,31.45-7.51-12.31-12.92-25.91-15.93-40.02-7.53,15.96-12.2,33.27-13.7,50.86-10.13-8.54-18.25-19.43-23.55-31.58-4.61,21.54-9.23,43.78-5.05,65.4-15.61-6.09-29.95-15.4-41.87-27.17-1.49,28.81,14.75,57.82,40.09,71.61-6.06-3.3-15.15-3.56-21.74-6.57-3.33-1.52-17.73-12.56-20.33-11.35-10.26,4.79,3.95,35.84,7.92,41.48Z"/>
    </clipPath>
    <clipPath id="clippath-1">
      <path class="cls-7" d="M69.56,120.96c-2.89-4.79,3.05-20.35,7.64-12.8-.02-4.09,4.97-3.06,7.84-2.6,1.04-4.17,3.29-11.27,6.87-6.66-.46-2.08,6.82-3.08,7.21-.99,1.05-6.02,8.12-9.76,11.6-3.39-1.42-2.6,8.91-5.8,5.23-1.27-.81-3.55,13.36-4.42,15.13.15,5.54.51,12-6.29,14.1.53,4.51-2.63,14.04-1.98,12.31,4.96,2.8,0,5.07,3.22,4.13,5.86,2.83-2.01,6.81,2.18,3.34,3.97,5.15.54,6.57,7.91,1.99,10.33,7.82,1.98,1.64,11.24-4.13,12.08.02-3.72-.88-5.3-.85-9.03-15.92,6.15-20,14-40,31-9-29-19.17-30.72-36.28-46-2.83,12.73-4.82,26.59-3.62,31.66-7.27-12.01-12.5-17.81-12.5-17.81Z"/>
    </clipPath>
  </defs>
  <g id="Layer_4" data-name="Layer 4">
    <g>
      <path class="cls-8" d="M11.57,167c9.15,12.99,24.07,21.75,39.87,23.43-14.42,2.65-11.03,7.18-25.03,13.25,14.53.61,60.95,4.68,66.52-7.89.81-1.83,3.87,1,5.82,1.41,4.73,1,14.45,1.7,17.74-1.85,5.32,6.02,37.05-4.8,43.28-13,30.68,18.53,37.33,7.36,55.16-18.37-36.77,16.96-46.11,11.58-46.11,11.58,37.34.29,59.49-61.14,60.46-84.27l-16.83,14.09c10.96-18.64,13.77-41.89,7.55-62.6-7.36,10.26-17.19,18.74-28.43,24.52-1.06-14.17-4.95-28.13-11.38-40.81-6.24,9.47-11.12,19.84-14.44,30.69.8-8.99-.65-18.18-4.17-26.49-2.6,6.62-5.2,13.23-7.8,19.85,3.67-19.55-11.03-37.58-26.12-50.54-1.46,11.79-4.54,23.37-9.13,34.33-6.06-2.62-11.54-6.55-15.96-11.45,1.05,10.48,2.1,20.97,3.15,31.45-7.51-12.31-12.92-25.91-15.93-40.02-7.53,15.96-12.2,33.27-13.7,50.86-10.13-8.54-18.25-19.43-23.55-31.58-4.61,21.54-9.23,43.78-5.05,65.4-15.61-6.09-29.95-15.4-41.87-27.17-1.49,28.81,14.75,57.82,40.09,71.61-6.06-3.3-15.15-3.56-21.74-6.57-3.33-1.52-17.73-12.56-20.33-11.35-10.26,4.79,3.95,35.84,7.92,41.48Z"/>
      <g class="cls-1">
        <path class="cls-6" d="M48.45,178.95c-8.97-23.47-7.67-50.66,3.49-73.16,2.14,31.65,9.64,68.93,39.64,85.48-9.57-26.51-11.52-55.72-5.55-83.27,16.3,24.26,33.14,49.99,35.24,79.14,13.75-21.99,27.49-43.97,41.24-65.96,1.09,34.46-2.22,58.04-8.82,68.4,7.16,13.97,18.94,37.06,28.56,40.45-31.63-11.17-97.01,63.38-158.27,3.79C5.03,211.08-24.26,147.71-6.08,120.72c7.12-4,12.66,9.34,15.75,13.94,5.49,8.16,11.51,15.97,17.99,23.37,4.92,5.62,18.27,14.32,20.79,20.92Z"/>
        <path class="cls-6" d="M5.94,71.44c20.11,57.25,56.45,82.81,31.52,69.16-22.48-12.31-8.24-3.58-18.45-19.45C5.24,105.37-.71,89.68,5.94,71.44Z"/>
        <path class="cls-6" d="M229.38,91.3c9.75,23.62,6.57,45.86,25.3,42.01-7.34,10.45-30.13,47.66-42.58,50.48-14.44,3.26-44.42,35.06-58.27,18.93-8.77,4.81-3.1-27.72-9.32-33.66,1.11-7.68,11.95-13.85,17.82-18.66,9.79-8.02,25.72-11.85,35.22-20.21,7.83-6.89,28.43-15.12,31.83-38.88Z"/>
        <path class="cls-6" d="M48.38,21.96c-.21,15.61.42,31.51,5.81,46.16s15.69,28.05,29.98,34.36c-10.77-29.46-13.03-63.11,5.65-87.72-3.33,17.29-8.19,28.37-5.2,45.72,2.78,16.12,9.64,33.36,24.42,40.37-1.09-29.79-2.26-60.02-11.41-88.39,7.53,26.29,15.06,52.59,22.59,78.88,6.62-.13,11.48-6.2,14.58-12.05,11.76-22.25,12.14-50.14.99-72.7,11.28,19.25,22.97,41.48,16.44,62.81-2.74,8.94-8.46,16.62-14.16,24.04,3.24.81,6.31-1.7,8.56-4.17,9.36-10.26,15.81-23.16,18.4-36.81.32,16.54-3.07,33.13-9.85,48.22,18.55-9.3,31.18-29.39,31.51-50.14,1.17,12.24,2.33,24.65.3,36.77-2.03,12.13-7.67,24.15-17.67,31.3,12.85-6.03,25.8-12.55,35.88-22.55s17.22-34.4,15.29-48.46c2.12,11.9,12.44,33.1-8.36,58.4-10.73,13.06-32.86,20.54-49.08,25.3-3.43,1.01,8.01-9.37,4.44-9.33-3.19.04-6.34-.71-9.44-1.45-16.29-3.88-32.59-7.77-48.88-11.65-7.79-1.86-16-3.71-23.7-1.52s-14.46,9.95-12.56,17.73c-5.07-6.26-18.67-22.54-20.43-18.7-14.28-20.23-16.48-53.27-4.08-84.43Z"/>
      </g>
    </g>
    <g>
      <path class="cls-9" d="M69.56,120.96c-2.89-4.79,3.05-20.35,7.64-12.8-.02-4.09,4.97-3.06,7.84-2.6,1.04-4.17,3.29-11.27,6.87-6.66-.46-2.08,6.82-3.08,7.21-.99,1.05-6.02,8.12-9.76,11.6-3.39-1.42-2.6,8.91-5.8,5.23-1.27-.81-3.55,13.36-4.42,15.13.15,5.54.51,12-6.29,14.1.53,4.51-2.63,14.04-1.98,12.31,4.96,2.8,0,5.07,3.22,4.13,5.86,2.83-2.01,6.81,2.18,3.34,3.97,5.15.54,6.57,7.91,1.99,10.33,7.82,1.98,1.64,11.24-4.13,12.08.02-3.72-.88-5.3-.85-9.03-15.92,6.15-20,14-40,31-9-29-19.17-30.72-36.28-46-2.83,12.73-4.82,26.59-3.62,31.66-7.27-12.01-12.5-17.81-12.5-17.81Z"/>
      <g class="cls-2">
        <g>
          <g>
            <path class="cls-3" d="M66.71,88.36c-.89.43-1.7,1.09-2.31,1.95-1.33,1.88-1.69,4.6-.89,6.84,2.12-3.06,5.8-4.61,9.17-3.85-1.25-1.53-.79-4.38.84-5.33.82-.47,1.81-.5,2.6-1.04.57-.39,1.01-1.03,1.64-1.28,2.6-1.05,4.09,4.97,6.78,4.29,1.94-.49,2.89-4.32,4.73-3.45-.11-2.71,2.76-4.79,5.01-3.89,2.25.91,3.39,4.1,2.7,6.7,1.73-.76,3.52-1.36,5.35-1.79.38-3.29,3.59-5.77,6.42-4.95-2.11-.43-4.23-.86-6.34-1.28-1.62-.33-3.33-.7-4.59-1.91-1.57-1.5-2.54-4.27-4.58-4.34-1.44-.05-2.55,1.35-3.46,2.62-1.95,2.76-3.9,5.52-5.85,8.28-1.88-4.08-5.41-7.12-9.37-8.06-1.61-.38-3.36-.42-4.84.39-1.49.81-2.62,2.63-2.42,4.49-2.9-.55-5.89,2.45-5.77,5.78,1.35,0,2.7-.02,4.05-.03l1.14-.16Z"/>
            <path class="cls-5" d="M174.79,79.25c-4.88.98-9.49-8.24-15.06-3.39.46-12.94-26.05-18.5-20.06-3.94-6.12-2.56-25.59-5.15-23.68,5.8,4.97-3.58,18.63-.92,6.29.23-.55.69.32,1.68,1.08,2.01,11.45,4.55-14.3-5.68-11.88,3.57-3.75,8.21-9.77,2.7-15.16,7.44-1.43-2.39-4.33-3.51-6.74-2.59-3.01,1.14,2.21,2.75,2.52,3.07,3.44,2.45-2.67,3.86-4.56,4.39-4.92,5.27-2.02,4.42-10.87,4.13-4.55,6.96-5.72,3.04-15.03,3.77-4.29.78-8.47,3.59-10.38,8.02-.36,5.61,18.92.48,2.75,8.04,8.46,8.6-6.59,4.14-4.9,9.45,15.16,1.82,6.29-10.35,31.88.85-4.39-15.4,16.58-18.26,9.97-8.05,12.06-.54,13.92-1.23,12.8,11.05,5.73-14.85,17.13-2.47,25.66-11.99-19.38,5.2-15.69-11.7-32.04-4.94.22-3.61,4.17-5.22,7.15-4-6.8-5.64-11.96-1.72-18.28-.94,12.24-5.96,13.69-3.75-1.15-8.02,9.48,2.5,15.96-.58,21.85,7.88.27,2.14,5.53,5.45,8,4,7.08-3.21,11.78-.76,19,2,5.25-12.34-27.15-.1-10-8-12.07-6.47-22.33-8.06,3-7-13.03,4.06,10.36,3.36,18,2-6.92-7.26-7.21-7.18-1-6,2.95,4.7,30.8-.42,35-1-1.22-2.88-22.84-12.28-23.58-15.09,9.6-7.03,14.84,6.78,22.08-.58,15.45,10.34,8.37-4.7-2.68-2.19ZM109.35,118.02c-.88.89-1.68,2-2.71,1.59.9-.53,1.81-1.06,2.71-1.59Z"/>
            <path class="cls-3" d="M98.55,116.18c1.09.52,2.19,1.02,3.27,1.57-1.05-.62-2.14-1.2-3.27-1.57Z"/>
          </g>
          <path class="cls-5" d="M129.97,114.1c-2,10,21.38-1.68,23.99-.97-2.56.55-5.03,1.55-7.32,2.95,1.6,1.93,3.79,3.2,6.1,3.53-3.48-.07-6.96-.13-10.45-.2.28.53.41,1.15.38,1.77-2.19.74-4.37,1.48-6.56,2.22-.82.28-1.73.64-2.07,1.52-.38.96.13,2.15.91,2.72s1.75.7,2.67.79c4.64.44,9.32.4,13.96-.12-.43.4-.85.81-1.28,1.21,2.64-.13,5.26-.79,7.7-1.94-2.87-2.41-6.22-4.08-9.73-4.82,4.83-.15,9.65-.86,14.35-2.14-2.8-.27-5.59-.55-8.39-.82,1.65-2.18,4.41-2.95,6.93-2.65s4.87,1.52,7.17,2.74c.52.28,1.13.73,1.07,1.38-.04.44-.39.76-.7,1.02-1.43,1.18-2.85,2.36-4.28,3.53,2.05.4,4.1.8,6.15,1.2-1.33,1.07-2.65,2.15-3.98,3.22,2.77.35,5.58.18,8.3-.48.46-.11.96-.26,1.28-.65.39-.47.44-1.17.45-1.82.06-2.43-.07-4.87-.39-7.27,3.56.36,7.15.42,10.73.19-4.47-4.83-11.53-6.28-17.21-3.54,3.21-4.15,8.03-6.63,12.89-6.61-5.14-2.51-11.21-2.4-16.27.29,5.15-4.36,11.94-6.13,18.25-4.76.92-2.45-1.81-4.8-4.16-4.84s-4.73,1.05-6.99.33c4.05-1.21,8.1-2.41,12.15-3.62-1.33-2.14-3.68-3.2-5.98-3.37s-4.58.43-6.82,1.03c-.32-2.41-2.93-4.03-4.89-3.04-2.19-3.27-6.8-4-9.69-1.53,4.15.65,8.26,1.59,12.3,2.82-3.31,1.06-6.73,1.7-10.17,1.91.49.83.98,1.66,1.47,2.5-2.09.94-4.46.38-6.63-.3-1.81-.56-3.66-1.2-5.53-.99s-3.79,1.5-4.25,3.56c4.45-.93,9.14-.39,13.34,1.54-6.67.54-13.35,1.08-20.02,1.62-1.04.08-2.15.2-2.97.95s-1.07,2.37-.22,3.07c-1.84-.57-3.75-1.15-5.63-.78s-3.71,1.99-3.85,4.15c4.33-1.12,5.46,4.82,9.89,4.49-.11.64,6.11-9.64,6-9,2.46-2.18,2.46,1.16,5.51.82,2.06-.23,8.2-1.16,9.89.32,2.78,2.43-.72,2.29-2.34,1.86s-3.09-.86-4.74-.61c-.7.1-20.13,5.7-20.32,5.61Z"/>
        </g>
      </g>
    </g>
  </g>
</svg>