<?xml version="1.0" encoding="UTF-8"?>
<svg xmlns="http://www.w3.org/2000/svg" xmlns:xlink="http://www.w3.org/1999/xlink" viewBox="0 0 394.28 655.89">
  <defs>
    <style>
      .cls-1 {
        clip-path: url(#clippath);
      }

      .cls-2 {
        fill: #5a863c;
      }

      .cls-2, .cls-3, .cls-4, .cls-5, .cls-6 {
        stroke-width: 0px;
      }

      .cls-7 {
        clip-path: url(#clippath-1);
      }

      .cls-8 {
        clip-path: url(#clippath-4);
      }

      .cls-9 {
        clip-path: url(#clippath-3);
      }

      .cls-10 {
        clip-path: url(#clippath-2);
      }

      .cls-11 {
        clip-path: url(#clippath-5);
      }

      .cls-3, .cls-12 {
        fill: #facad0;
      }

      .cls-4 {
        fill: #f58e8f;
      }

      .cls-5, .cls-13 {
        fill: #b9d875;
      }

      .cls-6 {
        fill: #cb7949;
      }
    </style>
    <clipPath id="clippath">
      <path class="cls-3" d="M121.9,103.93c-4.75-14.5-5.76-30.07-4.21-45.25,10.12,15.83,21.49,30.86,33.97,44.91-1.23-25.37-.82-50.81,1.2-76.12,4.77,9.86,9.54,19.73,14.31,29.59,2.44-12.9,7.22-25.34,14.05-36.55-.47,18.78.1,37.59,1.7,56.31,4.55-25.34,5.49-51.34,2.77-76.94,5.3,1.55,9.39,5.71,12.92,9.95,17.28,20.71,27.21,47.45,27.63,74.42,10.41-14.42,18.36-30.61,23.39-47.67,5.77,28.6,4.81,58.54-2.79,86.71,4.55-6.72,9.64-13.08,15.2-19,1.8,16.43-7.4,32.67-20.43,42.85-13.03,10.17-29.38,15.11-45.64,18.12-4.92.91-9.93,1.66-14.9,1.09-15.52-1.79-24.18-14.5-33.96-24.98-10.89-11.67-20.1-21.82-25.22-37.44Z"/>
    </clipPath>
    <clipPath id="clippath-1">
      <path class="cls-5" d="M182.3,311.36c-8.76-7.04-4.72-2.74-15.05-13.72-10.33-10.98-4.74-28.04-16.81-42.09-12.07-14.05-28.55-35.63-47.89-45.97-19.35-10.34-50.42,4.54-68.55,16.25,14.04-.9,19.23-6.2,35.35,2.93,16.12,9.13,22.31,29.97,30.66,51.01s31.39,47.6,52.36,40.99c20.97-6.61,15.7-9.32,34.36,5.17-1.67-4.86-3.41-10.22-4.43-14.57Z"/>
    </clipPath>
    <clipPath id="clippath-2">
      <path class="cls-5" d="M198.04,445.12c7.08-7.03,8.34,4.82,14.99-9.44s1.07-42.39,13.69-65.91c7.77-14.48,29.48-38.44,42.43-43.96,18.7-7.97,38.43-1.27,49.65.35,20.49,2.95,24.25,3.94,41.39,7.68-19.07,2.28-26.29.64-44.95,13.88-18.66,13.25-31.56,62.82-48.16,80.09s-25.02,14.69-42.83,19.73c-13.17,3.73-24.4,6.16-34.79,15.09,2.41-6.18,5.69-12.44,8.59-17.5Z"/>
    </clipPath>
    <clipPath id="clippath-3">
      <path class="cls-5" d="M196,660s-23.55-239-19.78-272.62,2.34-152.94-.36-166.1-4.86-64.28-4.86-64.28l16,6s10.55,147.63,5.67,208.65c-4.88,61.02,32.33,286.35,32.33,286.35l-29,2Z"/>
    </clipPath>
    <clipPath id="clippath-4">
      <path class="cls-5" d="M186.21,530.47s-44.21-68.47-58.21-78.47,22-3,37,7,21,46,21,46l.21,25.47Z"/>
    </clipPath>
    <clipPath id="clippath-5">
      <path class="cls-5" d="M178,168s-17.48,5.31-39.48-20.69-37-26-37-26c0,0,20-11,40,1,9.84,5.91,31.02,30.61,31.48,35.69,1,11-1.55-34.83,2-46,0,0,24,30,14,48,0,0,27.8-11.06,35.16-3.38s15.36,36.69,15.36,36.69c0,0-25-27-34-24s-19.52-.31-19.52-.31l-8-1Z"/>
    </clipPath>
  </defs>
  <g id="Layer_6" data-name="Layer 6">
    <g>
      <path class="cls-12" d="M121.9,103.93c-4.75-14.5-5.76-30.07-4.21-45.25,10.12,15.83,21.49,30.86,33.97,44.91-1.23-25.37-.82-50.81,1.2-76.12,4.77,9.86,9.54,19.73,14.31,29.59,2.44-12.9,7.22-25.34,14.05-36.55-.47,18.78.1,37.59,1.7,56.31,4.55-25.34,5.49-51.34,2.77-76.94,5.3,1.55,9.39,5.71,12.92,9.95,17.28,20.71,27.21,47.45,27.63,74.42,10.41-14.42,18.36-30.61,23.39-47.67,5.77,28.6,4.81,58.54-2.79,86.71,4.55-6.72,9.64-13.08,15.2-19,1.8,16.43-7.4,32.67-20.43,42.85-13.03,10.17-29.38,15.11-45.64,18.12-4.92.91-9.93,1.66-14.9,1.09-15.52-1.79-24.18-14.5-33.96-24.98-10.89-11.67-20.1-21.82-25.22-37.44Z"/>
      <g class="cls-1">
        <path class="cls-4" d="M209.15,101.13l17.09-16.9,16.37-40.21-27.53-10.69s10.77,21.84-14.81,67.34c-8.35,14.84,8.88.46,8.88.46Z"/>
        <path class="cls-4" d="M184.28,93.6l-1.1-16.99s-5.83-22.63-5.19-33.71c.64-11.07,3.24-22.4,3.24-22.4,0,0-18.64,19.62-14.05,36.55s17.11,36.54,17.11,36.54Z"/>
        <path class="cls-6" d="M180.64,87.69c1.96-.3,4.29,1.02,4.27,3,1.13-.59,2.44-.83,3.7-.7.41,1.78.89,3.66,2.2,4.92s3.76,1.52,4.82.04c.5-.7.65-1.7,1.41-2.11.92-.5,2.1.35,2.35,1.37s-.14,2.07-.52,3.04c1.21-.83,2.29,1.52,3.75,1.74.62.09,1.21-.24,1.81-.41,1.91-.56,4.15.66,4.73,2.56-7.79,5.79-14.79,12.64-20.74,20.31-2.44-6.61-5.78-12.89-9.92-18.6-1.29-1.78-2.68-3.54-3.52-5.58-1.87-4.56.73-8.82,5.67-9.58Z"/>
        <path class="cls-4" d="M118.82,51.19l-4.24,1.82c-6.95,30.07,2.77,63.44,24.76,85.09,7.72,7.6,16.72,13.74,25.67,19.84,3.96,2.7,7.93,5.4,11.89,8.1,7.39,5.04,15.2,10.24,24.1,11.14,3.72.38,7.49-.02,11.17-.75,16.06-3.17,30.75-12.8,40.06-26.26s13.14-30.6,10.43-46.75c-7.02,6.06-12.91,13.42-17.27,21.61,17.44-26.27,19.14-62.19,4.25-90-1.09,35.76-14.11,71.05-36.51,98.95-1.75,2.19-17.8,10.25-20.59,9.97,5.59-11.78-.36-27.08-8.78-38.21-4.51-5.97-8.41-15-12.2-21.44-3.44-5.85-5.76-12.27-8.07-18.66-4.36-12.09-8.74-24.24-11.03-36.89-5.19,30.52-.18,85.15,6.84,115.3-.54-2.3-12.79-30.48-14.71-32.41-3.54-3.54-6.83-7.33-9.85-11.32-6.04-7.99-10.99-16.8-14.65-26.12-1.83-4.66-3.33-9.44-4.51-14.31-.77-3.17-24.83-9.68,3.23-8.71Z"/>
      </g>
    </g>
  </g>
  <g id="Layer_5" data-name="Layer 5">
    <g>
      <path class="cls-13" d="M182.3,311.36c-8.76-7.04-4.72-2.74-15.05-13.72-10.33-10.98-4.74-28.04-16.81-42.09-12.07-14.05-28.55-35.63-47.89-45.97-19.35-10.34-50.42,4.54-68.55,16.25,14.04-.9,19.23-6.2,35.35,2.93,16.12,9.13,22.31,29.97,30.66,51.01s31.39,47.6,52.36,40.99c20.97-6.61,15.7-9.32,34.36,5.17-1.67-4.86-3.41-10.22-4.43-14.57Z"/>
      <g class="cls-7">
        <path class="cls-2" d="M196.27,325.76c-15.42-10.87-22.26-15.06-43.27-13.76s-31.42-11.18-42-24-20.94-57.15-29.56-61.5c-8.62-4.35-43.46-15.29-44.83,1.79-1.36,17.07,2.4,14.69,26.75,51.12,24.35,36.43,80.94,68.39,129.29,75.53,3.65-6.35,1.83-19.8,3.61-29.18Z"/>
        <path class="cls-2" d="M185.43,308.86c-7.51-4.67-17.76-8.79-24.22-14.13s-5.27-6.1-12.35-12.94c-7.09-6.83-19.62-24.65-26.77-33.3s-17.78-24.01-25.68-24.38c-4.76-.22,10.38,7.63,18.9,20.06,5.49,8.02,27.03,36.75,38.38,49.17,7.4,8.1,23,19.46,31.63,27.42.24-3.76.14-7.98.13-11.9Z"/>
      </g>
    </g>
    <g>
      <path class="cls-13" d="M198.04,445.12c7.08-7.03,8.34,4.82,14.99-9.44s1.07-42.39,13.69-65.91c7.77-14.48,29.48-38.44,42.43-43.96,18.7-7.97,38.43-1.27,49.65.35,20.49,2.95,24.25,3.94,41.39,7.68-19.07,2.28-26.29.64-44.95,13.88-18.66,13.25-31.56,62.82-48.16,80.09s-25.02,14.69-42.83,19.73c-13.17,3.73-24.4,6.16-34.79,15.09,2.41-6.18,5.69-12.44,8.59-17.5Z"/>
      <g class="cls-10">
        <path class="cls-2" d="M184.45,457.47c13.58-8.62,30.15-15.88,43.59-19.64,13.44-3.76,18.36-.36,29.4-10.68,11.04-10.32,16.46-28.01,24.01-41.65,7.55-13.64,18.94-37.48,32.44-42.92,13.5-5.44,33.98-15.51,44.59-6.99,10.61,8.52,10.84,8.76,7.9,32.74-2.93,23.98-140.05,104.98-163.89,108.78s-2.67-17.84-18.05-19.65Z"/>
        <path class="cls-2" d="M191.31,448.05c8.86-1.73,13.97-.15,22-7.59,8.03-7.44,9.95-18.99,17.03-30.62,7.08-11.63,13.33-32.96,23.55-44.07,10.22-11.11,24.36-22.66,35.97-28.1,11.61-5.43,23.62-10.7,33.27-10.54,9.65.16,11.91-1.12,19.84-3.85.38,1.19,1.08,2.45,1.78,3.48-10.1.59-17.28-.83-27.98,3.32s-27.31,8.61-37.16,17.21c-9.85,8.6-24.23,20.47-29.84,32.32-5.62,11.85-14.78,25.03-18.82,36.14-4.03,11.11-5.25,18.01-13.24,26.01-7.99,7.99-19.94,12.65-28.16,20.81.36-4.84.94-9.98,1.78-14.53Z"/>
      </g>
    </g>
    <g>
      <path class="cls-13" d="M196,660s-23.55-239-19.78-272.62,2.34-152.94-.36-166.1-4.86-64.28-4.86-64.28l16,6s10.55,147.63,5.67,208.65c-4.88,61.02,32.33,286.35,32.33,286.35l-29,2Z"/>
      <g class="cls-9">
        <path class="cls-2" d="M169.25,129.31s15.9,132.31,14.78,164.95-4.05,146.83,8.64,212.59,20.99,159.53,20.99,159.53l-67.83-2.66,13.66-540.21,9.76,5.8Z"/>
      </g>
    </g>
    <g>
      <path class="cls-13" d="M186.21,530.47s-44.21-68.47-58.21-78.47,22-3,37,7,21,46,21,46l.21,25.47Z"/>
      <g class="cls-8">
        <path class="cls-2" d="M189.64,512.22s-11.64-34.22-27.64-44.22-55-29-55-29l75,101,7.64-6.14v-21.64Z"/>
      </g>
    </g>
    <g>
      <path class="cls-13" d="M178,168s-17.48,5.31-39.48-20.69-37-26-37-26c0,0,20-11,40,1,9.84,5.91,31.02,30.61,31.48,35.69,1,11-1.55-34.83,2-46,0,0,24,30,14,48,0,0,27.8-11.06,35.16-3.38s15.36,36.69,15.36,36.69c0,0-25-27-34-24s-19.52-.31-19.52-.31l-8-1Z"/>
      <g class="cls-11">
        <path class="cls-2" d="M169.25,177.98s9.75-5.98,4.75-8.98-20-11-27-25-45.48-22.69-45.48-22.69l31.48,44.69,69,26,7-18,30.52,19.31s-20.52-28.31-28.52-29.31-23.48,3.31-24,7-13.24-2.31-13.24-2.31"/>
      </g>
    </g>
  </g>
</svg>