<?xml version="1.0" encoding="UTF-8"?>
<svg id="Layer_9" data-name="Layer 9" xmlns="http://www.w3.org/2000/svg" xmlns:xlink="http://www.w3.org/1999/xlink" viewBox="0 0 394.28 259.89">
  <defs>
    <style>
      .cls-1 {
        clip-path: url(#clippath);
      }

      .cls-2 {
        fill: #5a863c;
      }

      .cls-2, .cls-3 {
        stroke-width: 0px;
      }

      .cls-4 {
        clip-path: url(#clippath-1);
      }

      .cls-3, .cls-5 {
        fill: #b9d875;
      }
    </style>
    <clipPath id="clippath">
      <path class="cls-3" d="M187.19,134.17s-16.06-48.29-35.07-65.95c-19.01-17.67-33.64-35.34-21.94-38.06,11.7-2.72,52.59,30.82,57.01,44.63,4.41,13.81,0,59.38,0,59.38Z"/>
    </clipPath>
    <clipPath id="clippath-1">
      <path class="cls-3" d="M182.83,268s0-202.51,7.31-222.89c7.31-20.39,26.32,38.06,26.32,47.57s-2.92,86.33,0,105.69c2.92,19.35,3.54,69.64,3.54,69.64h-37.17Z"/>
    </clipPath>
  </defs>
  <g>
    <path class="cls-5" d="M187.19,134.17s-16.06-48.29-35.07-65.95c-19.01-17.67-33.64-35.34-21.94-38.06,11.7-2.72,52.59,30.82,57.01,44.63,4.41,13.81,0,59.38,0,59.38Z"/>
    <g class="cls-1">
      <path class="cls-2" d="M192.54,119.72s-18.48-46.07-30.18-56.95c-11.7-10.87-36.14-16.82-36.35-28.12-.21-11.29-21.7,23.6-21.7,23.6l62.73,75.91s24.04,11.42,22.11,5.35c-1.94-6.07,3.38-19.79,3.38-19.79Z"/>
    </g>
  </g>
  <g>
    <path class="cls-5" d="M182.83,268s0-202.51,7.31-222.89c7.31-20.39,26.32,38.06,26.32,47.57s-2.92,86.33,0,105.69c2.92,19.35,3.54,69.64,3.54,69.64h-37.17Z"/>
    <g class="cls-4">
      <path class="cls-2" d="M207.69,276.15s-8.77-69.31-10.24-99.21-9.49-109.88-5.85-134.55c1.3-8.82-30.71,5.44-30.71,5.44l-12.85,225.46,59.64,2.87Z"/>
    </g>
  </g>
</svg>