<?xml version="1.0" encoding="UTF-8"?>
<svg id="Layer_8" data-name="Layer 8" xmlns="http://www.w3.org/2000/svg" xmlns:xlink="http://www.w3.org/1999/xlink" viewBox="0 0 440.28 764.89">
  <defs>
    <style>
      .cls-1 {
        clip-path: url(#clippath);
      }

      .cls-2 {
        fill: #5a863c;
      }

      .cls-2, .cls-3, .cls-4, .cls-5 {
        stroke-width: 0px;
      }

      .cls-6 {
        clip-path: url(#clippath-1);
      }

      .cls-7 {
        clip-path: url(#clippath-4);
      }

      .cls-8 {
        clip-path: url(#clippath-3);
      }

      .cls-9 {
        clip-path: url(#clippath-2);
      }

      .cls-3, .cls-10 {
        fill: #facad0;
      }

      .cls-4 {
        fill: #f58e8f;
      }

      .cls-5, .cls-11 {
        fill: #b9d875;
      }
    </style>
    <clipPath id="clippath">
      <path class="cls-5" d="M220.04,603.14s-8.41-5.6-8.43-10.35,13.84-31.58-12.13-58.99c-15.99-16.87-45.6-31.71-62.43-35.4-24.3-5.33-40.14,2.16-47.1,7.32-12.73,9.43-22.93,18.05-22.93,18.05,0,0,19.23-9.36,34.23-4.03s43.68,47.58,56.34,57.82c12.66,10.24,23.7,12.66,38.55,18.63,10.98,4.41,20.54,21.01,20.54,21.01l3.37-14.05Z"/>
    </clipPath>
    <clipPath id="clippath-1">
      <path class="cls-5" d="M226.18,665.13c4.97-4.4,5.86,3.02,10.52-5.91s.75-26.51,9.61-41.23c5.45-9.06,20.69-24.05,29.79-27.5,13.13-4.98,26.98-.79,34.85.22,14.39,1.84,17.03,2.47,29.06,4.8-13.39,1.42-18.45.4-31.56,8.68-13.1,8.28-22.15,39.29-33.81,50.1-11.65,10.8-17.57,9.19-30.07,12.34-9.25,2.33-17.13,3.86-24.42,9.44,1.69-3.86,4-7.78,6.03-10.95Z"/>
    </clipPath>
    <clipPath id="clippath-2">
      <path class="cls-5" d="M201.98,773s16.52-248.03,29.74-285.76l17.98-5.51c-20.58,61.27-12.32,285.63-12.32,285.63l-35.39,5.64Z"/>
    </clipPath>
    <clipPath id="clippath-3">
      <path class="cls-3" d="M233.04,497.55s-8.7-21.81-5.18-43.64c3.52-21.84,36.45-41.6,36.45-41.6,0,0,6.66,16.07,1.85,22.41,0,0,16.5-18.92,14.31-30.71,0,0,17.23,24.51,14.2,38.28-3.03,13.77-12.72,44.5-12.72,44.5l-44.16,18.02-4.75-7.25Z"/>
    </clipPath>
    <clipPath id="clippath-4">
      <path class="cls-5" d="M228.69,504.27s-14.97-22.44-15.44-36.85c-.48-14.41,16.37-28.17,18.13-35.35,1.77-7.18-1.43-10.25-1.43-10.25,0,0,10.74,11.24,9.71,25.7-1.03,14.46,5.91,38.33,1.05,46.08,0,0,14.58-23.25,25.95-26.1,0,0-17.68,23.82-14.8,30.15,0,0,20.26-8.3,25.59-14.61s19.19-37.57,17.21-40.76c0,0,1.28,39.65-7.22,48.83-8.49,9.18-15.37,15.78-22.57,16.34s-24.33,2.65-24.33,2.65l-11.87-5.82Z"/>
    </clipPath>
  </defs>
  <g>
    <path class="cls-11" d="M220.04,603.14s-8.41-5.6-8.43-10.35,13.84-31.58-12.13-58.99c-15.99-16.87-45.6-31.71-62.43-35.4-24.3-5.33-40.14,2.16-47.1,7.32-12.73,9.43-22.93,18.05-22.93,18.05,0,0,19.23-9.36,34.23-4.03s43.68,47.58,56.34,57.82c12.66,10.24,23.7,12.66,38.55,18.63,10.98,4.41,20.54,21.01,20.54,21.01l3.37-14.05Z"/>
    <g class="cls-1">
      <path class="cls-2" d="M223.96,615.85s-18.56-24.43-28.19-27.9c-9.63-3.47-15.93-1.45-28.74-11.05-12.81-9.59-18.62-24.24-27.14-32.32-8.52-8.07-28.31-27.34-38.4-28.88-10.1-1.53-30.09,4.26-34.49,8.05-4.4,3.79,13.98,24.1,13.98,24.1,0,0,117,74.51,116.84,75.15s26.14-7.17,26.14-7.17Z"/>
      <path class="cls-2" d="M223.56,607.84s-10.53-4.57-14.35-12.87c-3.82-8.3-5.15-22.17-10.69-28.13-5.54-5.97-13.21-27.33-31.7-37.49-18.49-10.16-37.75-17.1-47.54-19.92-9.79-2.82-28.47-5.4-31.18-2.34s-15.37,3.56-15.37,3.56l1.33,3.12s14.47-7.01,20.15-6.44,22.87,1.62,38.51,9.12c15.64,7.5,39.5,19.52,41.89,24.11,2.39,4.59,21.23,22.98,22.84,30.8,1.61,7.82,6.88,22.49,6.88,22.49l12.35,23.34,6.89-9.34Z"/>
    </g>
  </g>
  <g>
    <path class="cls-11" d="M226.18,665.13c4.97-4.4,5.86,3.02,10.52-5.91s.75-26.51,9.61-41.23c5.45-9.06,20.69-24.05,29.79-27.5,13.13-4.98,26.98-.79,34.85.22,14.39,1.84,17.03,2.47,29.06,4.8-13.39,1.42-18.45.4-31.56,8.68-13.1,8.28-22.15,39.29-33.81,50.1-11.65,10.8-17.57,9.19-30.07,12.34-9.25,2.33-17.13,3.86-24.42,9.44,1.69-3.86,4-7.78,6.03-10.95Z"/>
    <g class="cls-6">
      <path class="cls-2" d="M216.63,672.85c9.53-5.39,21.17-9.93,30.6-12.28,9.43-2.35,12.89-.23,20.64-6.68,7.75-6.46,11.56-17.52,16.86-26.05,5.3-8.53,13.3-23.44,22.78-26.84,9.48-3.4,23.86-9.7,31.3-4.37,7.45,5.33,7.61,5.48,5.55,20.48-2.06,15-98.31,65.67-115.05,68.04-16.74,2.38-1.88-11.16-12.67-12.29Z"/>
      <path class="cls-2" d="M221.45,666.96c6.22-1.08,9.81-.09,15.44-4.75,5.63-4.65,6.99-11.88,11.95-19.16,4.97-7.28,9.36-20.62,16.53-27.57,7.17-6.95,17.1-14.18,25.25-17.57,8.15-3.4,16.58-6.69,23.35-6.59,6.77.1,8.36-.7,13.93-2.41.27.75.76,1.53,1.25,2.18-7.09.37-12.13-.52-19.64,2.08-7.51,2.6-19.17,5.39-26.09,10.77-6.91,5.38-17.01,12.8-20.95,20.22-3.94,7.41-10.38,15.66-13.21,22.61-2.83,6.95-3.69,11.27-9.29,16.27-5.61,5-14,7.91-19.77,13.02.25-3.03.66-6.24,1.25-9.09Z"/>
    </g>
  </g>
  <g>
    <path class="cls-11" d="M201.98,773s16.52-248.03,29.74-285.76l17.98-5.51c-20.58,61.27-12.32,285.63-12.32,285.63l-35.39,5.64Z"/>
    <g class="cls-9">
      <path class="cls-2" d="M258.69,280.35s-4.13,123.07-10.5,152.59c-6.37,29.51-27.59,132.92-24.57,194.89,3.02,61.97-3.06,148.7-3.06,148.7l-71.49-13.88,100.2-489.23,9.43,6.92Z"/>
    </g>
  </g>
  <g>
    <path class="cls-10" d="M233.04,497.55s-8.7-21.81-5.18-43.64c3.52-21.84,36.45-41.6,36.45-41.6,0,0,6.66,16.07,1.85,22.41,0,0,16.5-18.92,14.31-30.71,0,0,17.23,24.51,14.2,38.28-3.03,13.77-12.72,44.5-12.72,44.5l-44.16,18.02-4.75-7.25Z"/>
    <g class="cls-8">
      <path class="cls-4" d="M239.09,510.23s4.27-51.4,10.89-66.33c6.63-14.93,14.33-31.59,14.33-31.59l-29,9.14-18.05,68.09,21.83,20.7,2.67-25.28s14.77-37.91,24.4-50.24c9.63-12.32,12.05-40.2,12.05-40.2,0,0,5.9,8.06,4.53,18.98-1.37,10.92-11.92,48.48-24.85,62-12.92,13.52-9.58,21.29-9.58,21.29,0,0,15.53-7.71,22.79-16.9,7.26-9.19,29.43-40.44,21.77-52.12-7.66-11.67,49.32,35,49.32,35l-65.94,74.6-37.16-27.14"/>
    </g>
  </g>
  <g>
    <path class="cls-11" d="M228.69,504.27s-14.97-22.44-15.44-36.85c-.48-14.41,16.37-28.17,18.13-35.35,1.77-7.18-1.43-10.25-1.43-10.25,0,0,10.74,11.24,9.71,25.7-1.03,14.46,5.91,38.33,1.05,46.08,0,0,14.58-23.25,25.95-26.1,0,0-17.68,23.82-14.8,30.15,0,0,20.26-8.3,25.59-14.61s19.19-37.57,17.21-40.76c0,0,1.28,39.65-7.22,48.83-8.49,9.18-15.37,15.78-22.57,16.34s-24.33,2.65-24.33,2.65l-11.87-5.82Z"/>
    <g class="cls-7">
      <path class="cls-2" d="M232.5,506.45s-11.68-16.05-4.91-35.59c6.77-19.53,10.18-43.46,2.36-49.04-7.81-5.58-36.59,58.35-36.59,58.35l27.07,27.56,9.62-2.68"/>
      <path class="cls-2" d="M240.71,493.6s18.83-27.84,25.95-26.1c-9.9,4.87-28.87,37.31-28.87,37.31l2.92-11.2"/>
      <path class="cls-2" d="M251.87,497.65l42.8-55.37s-3.68,34.46-12.72,44.5c-9.03,10.04-30.08,10.86-30.08,10.86"/>
    </g>
  </g>
</svg>