<?xml version="1.0" encoding="UTF-8"?>
<svg id="Layer_7" data-name="Layer 7" xmlns="http://www.w3.org/2000/svg" xmlns:xlink="http://www.w3.org/1999/xlink" viewBox="0 0 440.28 764.89">
  <defs>
    <style>
      .cls-1 {
        clip-path: url(#clippath);
      }

      .cls-2 {
        fill: #5a863c;
      }

      .cls-2, .cls-3, .cls-4, .cls-5 {
        stroke-width: 0px;
      }

      .cls-6 {
        clip-path: url(#clippath-1);
      }

      .cls-7 {
        clip-path: url(#clippath-4);
      }

      .cls-8 {
        clip-path: url(#clippath-3);
      }

      .cls-9 {
        clip-path: url(#clippath-2);
      }

      .cls-3, .cls-10 {
        fill: #facad0;
      }

      .cls-4 {
        fill: #f58e8f;
      }

      .cls-5, .cls-11 {
        fill: #b9d875;
      }
    </style>
    <clipPath id="clippath">
      <path class="cls-5" d="M324.63,620.16s41.87-38.06,19.29-56.58c-22.59-18.52-29.2-35.67-41.2-35.94-12-.27-35.14,3.87-62.25,54.6-9.4,17.59-20.52,22.54-20.52,22.54l1.55,20.04s19.61-26.56,34.56-24.22c14.95,2.34,24.83,7.56,62.6-25.59,0,0,14.52,21.33,5.98,45.15Z"/>
    </clipPath>
    <clipPath id="clippath-1">
      <path class="cls-5" d="M213.88,530.19s-9.15-4.22-10.13-9.32c-.99-5.1,6.77-36.86-23.53-60.77-18.66-14.72-49.87-24.35-66.65-24.73-24.23-.55-37.79,10.86-43.37,17.88-10.21,12.83-18.18,24.26-18.18,24.26,0,0,16.42-14.14,31.78-11.62,15.37,2.53,51.26,41.8,65.4,50.1,14.13,8.3,25.15,8.55,40.5,11.8,11.36,2.4,23.83,18.19,23.83,18.19l.36-15.81Z"/>
    </clipPath>
    <clipPath id="clippath-2">
      <path class="cls-5" d="M205.13,768.27s1.27-326.03,8.61-366.88l16.87-9.61c-11.32,74.31.18,378.67.18,378.67l-25.66-2.18Z"/>
    </clipPath>
    <clipPath id="clippath-3">
      <path class="cls-3" d="M214.96,392.85s-21.22-17.71-30.5-42.34c-9.27-24.63,11.46-63.71,11.46-63.71,0,0,15.88,12.92,14.86,22.2,0,0,5.14-28.93-3.88-39.92,0,0,31.15,15.7,36.21,31.69s13.47,53.33,13.47,53.33l-32.74,43.6-8.88-4.84Z"/>
    </clipPath>
    <clipPath id="clippath-4">
      <path class="cls-5" d="M214.62,402.28s-27.73-14.83-36.59-29.5c-8.86-14.67-.38-38.45-2.84-46.9-2.45-8.45-7.37-9.82-7.37-9.82,0,0,17.07,5.6,24.48,21.17s28.11,36.42,27.87,47.2c0,0,.73-32.34,10.21-41.72,0,0-3.43,34.68,3.07,39.62,0,0,15.01-20.03,16.55-29.59,1.54-9.55-3.09-49.8-6.89-51.99,0,0,24.35,40.4,21.38,54.71-2.97,14.31-5.86,25.04-12.58,29.68-6.72,4.64-22.28,16.47-22.28,16.47l-15.02.66Z"/>
    </clipPath>
  </defs>
  <g>
    <path class="cls-11" d="M324.63,620.16s41.87-38.06,19.29-56.58c-22.59-18.52-29.2-35.67-41.2-35.94-12-.27-35.14,3.87-62.25,54.6-9.4,17.59-20.52,22.54-20.52,22.54l1.55,20.04s19.61-26.56,34.56-24.22c14.95,2.34,24.83,7.56,62.6-25.59,0,0,14.52,21.33,5.98,45.15Z"/>
    <g class="cls-1">
      <path class="cls-2" d="M211,629.75s6.88-22.01,24.03-28.62c17.15-6.61,16.09-3.64,21.06-2.52s20.93,3.48,47.24-9.93c12.47-6.36-15.99,43.65-15.99,43.65l-76.34-2.57Z"/>
      <path class="cls-2" d="M318.65,575.01s11.31-13.75,18.24-10.59,9.79,9.22,9.73,12.22-.45,19.99-21.99,43.51-10.68-14.25-10.68-14.25l4.7-30.9"/>
      <path class="cls-2" d="M211.28,617.58s37.75-16.13,41.98-26.04c4.23-9.91,42.03-45.06,56.07-46.74,12.3-1.47,33.67,14.77,33.67,14.77l-12.82-8.29s-17.66-15.4-33.88-5.77c-25.46,15.12-33.63,27.25-39.81,35.11-9.77,12.43-45.23,36.97-45.23,36.97Z"/>
    </g>
  </g>
  <g>
    <path class="cls-11" d="M213.88,530.19s-9.15-4.22-10.13-9.32c-.99-5.1,6.77-36.86-23.53-60.77-18.66-14.72-49.87-24.35-66.65-24.73-24.23-.55-37.79,10.86-43.37,17.88-10.21,12.83-18.18,24.26-18.18,24.26,0,0,16.42-14.14,31.78-11.62,15.37,2.53,51.26,41.8,65.4,50.1,14.13,8.3,25.15,8.55,40.5,11.8,11.36,2.4,23.83,18.19,23.83,18.19l.36-15.81Z"/>
    <g class="cls-6">
      <path class="cls-2" d="M220.2,543.01s-22.63-22.28-32.51-23.96c-9.88-1.68-15.47,1.83-29.62-5.75-14.15-7.58-22.66-22.07-32.41-28.93-9.75-6.86-32.51-23.34-42.44-22.84-9.93.5-27.79,10.98-31.21,15.98-3.42,5,18.21,22.91,18.21,22.91,0,0,126.55,55.12,126.54,55.84s23.44-13.26,23.44-13.26Z"/>
      <path class="cls-2" d="M218.19,534.5s-10.96-2.66-16.28-10.77c-5.33-8.1-9.4-22.71-15.89-27.94-6.49-5.23-18.13-26.54-37.8-33.51-19.67-6.98-39.43-10.33-49.32-11.28-9.89-.95-28.21.25-30.17,4.12-1.96,3.86-13.92,7.09-13.92,7.09l1.9,3.07s12.36-10.61,17.88-11.21,22.11-3.13,38.52,1.6c16.42,4.73,41.58,12.55,44.79,16.98,3.2,4.43,24.88,20.16,28.01,28.21,3.12,8.05,11.12,22.69,11.12,22.69l16.5,22.44,4.67-11.5Z"/>
    </g>
  </g>
  <g>
    <path class="cls-11" d="M205.13,768.27s1.27-326.03,8.61-366.88l16.87-9.61c-11.32,74.31.18,378.67.18,378.67l-25.66-2.18Z"/>
    <g class="cls-9">
      <path class="cls-2" d="M228.69,124.08s2.48,163.43-2.05,203.31c-4.54,39.88-19.4,179.48-13.28,261.11,6.12,81.63,4.84,197.21,4.84,197.21l-68.98-9.14L219.33,116.14l9.36,7.94Z"/>
    </g>
  </g>
  <g>
    <path class="cls-10" d="M214.96,392.85s-21.22-17.71-30.5-42.34c-9.27-24.63,11.46-63.71,11.46-63.71,0,0,15.88,12.92,14.86,22.2,0,0,5.14-28.93-3.88-39.92,0,0,31.15,15.7,36.21,31.69s13.47,53.33,13.47,53.33l-32.74,43.6-8.88-4.84Z"/>
    <g class="cls-8">
      <path class="cls-4" d="M228.27,402.59s-25.76-55.72-27.97-74.94-4.37-40.85-4.37-40.85l-23.08,25.84,21.99,80.8,33.44,9.15-12.11-27.72s-7.62-47.66-5.37-65.87c2.25-18.21-11.62-48.49-11.62-48.49,0,0,10.47,5.03,15.49,17.13,5.02,12.1,16.57,57.01,11.79,78.32-4.78,21.31,3.02,27.48,3.02,27.48,0,0,10.72-16.75,12.47-30.39,1.76-13.63,5.26-58.55-9.04-66.34-14.3-7.79,68.69,8.47,68.69,8.47l-21.12,114.58-52.2-7.18"/>
    </g>
  </g>
  <g>
    <path class="cls-11" d="M214.62,402.28s-27.73-14.83-36.59-29.5c-8.86-14.67-.38-38.45-2.84-46.9-2.45-8.45-7.37-9.82-7.37-9.82,0,0,17.07,5.6,24.48,21.17s28.11,36.42,27.87,47.2c0,0,.73-32.34,10.21-41.72,0,0-3.43,34.68,3.07,39.62,0,0,15.01-20.03,16.55-29.59,1.54-9.55-3.09-49.8-6.89-51.99,0,0,24.35,40.4,21.38,54.71-2.97,14.31-5.86,25.04-12.58,29.68-6.72,4.64-22.28,16.47-22.28,16.47l-15.02.66Z"/>
    <g class="cls-7">
      <path class="cls-2" d="M219.62,402.39s-20.79-10.06-25.54-34.14c-4.75-24.08-15.35-50.82-26.26-52.2s-1.84,81.16-1.84,81.16l42.57,13.31,7.86-8.21"/>
      <path class="cls-2" d="M220.18,384.43s2.22-39.5,10.21-41.72c-6.86,10.63-6.54,54.98-6.54,54.98l-3.67-13.27"/>
      <path class="cls-2" d="M233.45,382.33l9.66-81.57s16.47,37.82,13.47,53.33-23.13,28.24-23.13,28.24"/>
    </g>
  </g>
</svg>